# xmcd
#
# Track frame offsets: 
#        150
#        7572
#        33152
#        45527
#        55885
#        70435
#        82947
#        98230
#        117947
#        131040
#        160760
#        182825
#
# Disc length: 2742 seconds
#
# Revision: 8
# Processed by: cddbd v1.5.2PL0 Copyright (c) Steve Scherf et al.
# Submitted via: ExactAudioCopyFreeDBPlugin 1.0
#
DISCID=8f0ab40c
DTITLE=Niagara Fallin' Stars - Let's Ondo Again (1500円盤)
DYEAR=1996
DGENRE=邦楽
TTITLE0=多羅尾伴内楽団 - 峠の早駕籠
TTITLE1=多羅尾伴内楽団 - 337秒間世界一周
TTITLE2=宿霧十軒 - 空飛ぶカナヅチ君
TTITLE3=Each Ohtaki - 烏賊酢是!此乃鯉
TTITLE4=山形かゑるこ - アン・アン小唄
TTITLE5=モンスター - ピンク・レディー
TTITLE6=オシャマンベ・キャッツ - 河原の石川五右衛門
TTITLE7=竜ヶ崎宇童 - 禁煙音頭
TTITLE8=イーハトブ田五三九 - ハンド・クラッピング音頭
TTITLE9=蘭越ジミー - 呆阿津怒哀声音頭
TTITLE10=アミーゴ布谷 - Let's Ondo Again
TTITLE11=アミーゴ布谷 - Let's Ondo Again ('81 Mix)
EXTD=YEAR: 1978
EXTT0=
EXTT1=
EXTT2=
EXTT3=
EXTT4=
EXTT5=
EXTT6=
EXTT7=
EXTT8=
EXTT9=
EXTT10=
EXTT11=
PLAYORDER=
